<svg width="40" height="40" viewBox="0 0 40 40" fill="none" xmlns="http://www.w3.org/2000/svg">
<path d="M0 15H40V23.75H0V15Z" fill="#E6E7E8"/>
<path d="M33.75 5.625H6.25C2.10813 5.625 0 8.70313 0 12.5V15H40V12.5C40 8.70313 37.8919 5.625 33.75 5.625Z" fill="#FF9933"/>
<path d="M0 26.25C0 30.0469 2.10813 33.125 6.25 33.125H33.75C37.8919 33.125 40 30.0469 40 26.25V23.75H0V26.25Z" fill="#128807"/>
<path fill-rule="evenodd" clip-rule="evenodd" d="M20.194 15.3644C20.9925 15.3644 21.7731 15.6013 22.437 16.045C23.1009 16.4888 23.6183 17.1196 23.9236 17.8575C24.2289 18.5954 24.3084 19.4072 24.1522 20.1904C23.996 20.9735 23.6109 21.6927 23.0458 22.2569C22.4807 22.8211 21.7609 23.205 20.9776 23.3601C20.1942 23.5151 19.3824 23.4343 18.645 23.1278C17.9076 22.8214 17.2777 22.3031 16.8349 21.6385C16.3922 20.9739 16.1565 20.1929 16.1577 19.3944C16.1595 18.325 16.5856 17.3001 17.3423 16.5445C18.099 15.789 19.1246 15.3645 20.194 15.3644M17.5033 17.1113C17.5727 17.19 17.5852 17.2744 17.539 17.345C17.5194 17.3775 17.4891 17.4023 17.4533 17.415C17.4259 17.4252 17.3964 17.4286 17.3673 17.4249C17.3382 17.4212 17.3105 17.4105 17.2865 17.3938C17.1778 17.5493 17.0823 17.7136 17.0008 17.885C17.0952 17.9469 17.1265 18.0244 17.0952 18.11C17.0785 18.1536 17.0454 18.1889 17.0031 18.2085C16.9607 18.2281 16.9124 18.2305 16.8683 18.215C16.8233 18.305 16.724 18.685 16.7227 18.765C16.7641 18.7729 16.8013 18.7953 16.8277 18.8281C16.8556 18.8607 16.8699 18.9028 16.8677 18.9456C16.8558 19.0631 16.7833 19.1131 16.6727 19.1175C16.6552 19.2306 16.6571 19.6094 16.6746 19.6838C16.7921 19.6963 16.854 19.7475 16.864 19.8369C16.8777 19.9331 16.8315 19.9956 16.719 20.0394C16.7527 20.225 16.8008 20.4075 16.864 20.5863C16.908 20.5729 16.9552 20.5745 16.9983 20.5906C17.0402 20.6088 17.0733 20.64 17.0908 20.6831C17.1065 20.7169 17.1096 20.7519 17.1015 20.7888C17.0956 20.8162 17.0835 20.8418 17.066 20.8637C17.0486 20.8857 17.0263 20.9032 17.0008 20.915C17.0846 21.0888 17.1771 21.2525 17.2865 21.4063C17.384 21.3581 17.469 21.3694 17.5265 21.4381C17.5518 21.4664 17.5662 21.5027 17.5671 21.5406C17.569 21.5686 17.5641 21.5967 17.5528 21.6224C17.5415 21.6481 17.5241 21.6707 17.5021 21.6881C17.6271 21.8344 17.7602 21.9681 17.9052 22.0913C17.9871 22.0194 18.0721 22.0081 18.1452 22.0594C18.1783 22.0825 18.2015 22.1131 18.2121 22.1506C18.2197 22.1772 18.2213 22.2051 18.2168 22.2323C18.2122 22.2596 18.2017 22.2855 18.1858 22.3081C18.344 22.4169 18.5071 22.5106 18.6777 22.5919C18.744 22.4988 18.8196 22.4675 18.9015 22.4988C18.9371 22.5116 18.9681 22.5349 18.9902 22.5656C19.0215 22.6156 19.0258 22.6706 19.0077 22.7294C19.1877 22.7931 19.369 22.8419 19.5565 22.875C19.5933 22.7694 19.6571 22.72 19.7421 22.7263C19.7815 22.7294 19.8171 22.7413 19.8483 22.7681C19.8921 22.8081 19.9127 22.8588 19.909 22.9213C20.1015 22.935 20.2896 22.9363 20.4765 22.9213C20.4902 22.8006 20.5383 22.74 20.6352 22.7263C20.672 22.7212 20.7095 22.7287 20.7415 22.7475C20.7649 22.7607 20.785 22.7791 20.8004 22.8011C20.8157 22.8232 20.8259 22.8485 20.8302 22.875C21.019 22.84 21.2021 22.7919 21.379 22.7288C21.3633 22.6106 21.3921 22.54 21.4715 22.5031C21.5004 22.4907 21.532 22.4858 21.5633 22.4887C21.5958 22.4912 21.6252 22.5013 21.649 22.5225C21.6721 22.5419 21.6915 22.5656 21.714 22.59C21.8843 22.5096 22.0478 22.4153 22.2027 22.3081C22.139 22.2081 22.1765 22.1125 22.2283 22.07C22.2464 22.0545 22.2674 22.0427 22.2901 22.0354C22.3128 22.0281 22.3367 22.0254 22.3604 22.0275C22.3842 22.0295 22.4073 22.0362 22.4284 22.0473C22.4495 22.0584 22.4682 22.0735 22.4833 22.0919C22.6277 21.9681 22.7633 21.8338 22.8846 21.6894C22.814 21.6088 22.8002 21.5238 22.8521 21.4506C22.8731 21.4179 22.9053 21.3939 22.9427 21.3831C22.9694 21.3747 22.9976 21.3725 23.0253 21.3767C23.0529 21.3809 23.0792 21.3915 23.1021 21.4075C23.2115 21.25 23.3065 21.0869 23.3877 20.9156C23.2965 20.8544 23.2633 20.7825 23.2908 20.7006C23.3008 20.6642 23.3229 20.6323 23.3533 20.61C23.3776 20.5931 23.4055 20.582 23.4348 20.5776C23.4641 20.5733 23.494 20.5758 23.5221 20.585C23.5627 20.4969 23.664 20.1256 23.6696 20.0356C23.6264 20.0278 23.5873 20.0047 23.5596 19.9706C23.545 19.9538 23.5341 19.934 23.5276 19.9127C23.521 19.8914 23.5189 19.869 23.5215 19.8469C23.5238 19.8073 23.5402 19.7698 23.5677 19.7413C23.5865 19.7214 23.6095 19.7061 23.6351 19.6964C23.6606 19.6866 23.688 19.6827 23.7152 19.685C23.7308 19.4959 23.7308 19.3059 23.7152 19.1169C23.5958 19.105 23.539 19.0588 23.5233 18.9644C23.5163 18.9287 23.5216 18.8917 23.5383 18.8594C23.5512 18.8344 23.5697 18.8128 23.5924 18.7962C23.6151 18.7796 23.6413 18.7685 23.669 18.7638C23.6361 18.577 23.5874 18.3934 23.5233 18.215C23.4077 18.2344 23.3365 18.2031 23.2983 18.1231C23.2885 18.1017 23.2829 18.0786 23.2821 18.055C23.2812 18.0315 23.2851 18.008 23.2934 17.986C23.3017 17.9639 23.3143 17.9437 23.3305 17.9266C23.3467 17.9095 23.3662 17.8958 23.3877 17.8863C23.3067 17.7144 23.2112 17.5499 23.1021 17.3944C23.0015 17.4425 22.9196 17.4313 22.8621 17.3625C22.8366 17.3335 22.8224 17.2962 22.8221 17.2575C22.8209 17.23 22.8262 17.2027 22.8375 17.1776C22.8488 17.1525 22.8658 17.1305 22.8871 17.1131C22.7637 16.9687 22.6293 16.8339 22.4852 16.71C22.399 16.7838 22.3152 16.7931 22.244 16.7419C22.2116 16.7203 22.1879 16.688 22.1771 16.6506C22.1693 16.6244 22.1676 16.5967 22.1722 16.5698C22.1767 16.5428 22.1874 16.5172 22.2033 16.495C22.0475 16.3864 21.883 16.2909 21.7115 16.2094C21.6471 16.3019 21.5746 16.3325 21.4927 16.305C21.4564 16.2934 21.4247 16.2707 21.4021 16.24C21.3856 16.2156 21.3751 16.1877 21.3714 16.1585C21.3677 16.1293 21.3709 16.0996 21.3808 16.0719C21.2025 16.0074 21.0189 15.9587 20.8321 15.9263C20.7965 16.0275 20.7321 16.08 20.649 16.075C20.6101 16.0738 20.5728 16.0597 20.5427 16.035C20.5204 16.0162 20.503 15.9923 20.492 15.9653C20.4811 15.9383 20.4768 15.909 20.4796 15.88C20.2908 15.864 20.1009 15.8642 19.9121 15.8806C19.899 15.9931 19.8502 16.0575 19.7671 16.0713C19.7297 16.0792 19.6908 16.0744 19.6565 16.0575C19.6309 16.0449 19.6087 16.0263 19.5918 16.0034C19.5748 15.9804 19.5636 15.9538 19.559 15.9256C19.3722 15.9596 19.1884 16.0087 19.0096 16.0725C19.0296 16.1831 18.9983 16.2556 18.9221 16.295C18.889 16.3119 18.854 16.3188 18.8152 16.3119C18.7861 16.3079 18.7585 16.2964 18.7352 16.2786C18.7118 16.2607 18.6935 16.2371 18.6821 16.21C18.5752 16.25 18.2352 16.4469 18.1902 16.4963C18.2365 16.5888 18.2258 16.6706 18.1621 16.7294C18.1441 16.7453 18.1231 16.7574 18.1003 16.765C18.0775 16.7727 18.0534 16.7756 18.0294 16.7738C18.0055 16.7719 17.9821 16.7652 17.9608 16.7542C17.9394 16.7431 17.9206 16.7279 17.9052 16.7094C17.761 16.8327 17.6266 16.967 17.5033 17.1113" fill="#010088"/>
<path fill-rule="evenodd" clip-rule="evenodd" d="M21.9253 22.3919C21.9178 22.3837 21.9103 22.3781 21.9046 22.3694C21.5413 21.8139 21.1769 21.2591 20.8115 20.705C20.8034 20.6894 20.794 20.6737 20.7865 20.6562C20.7015 20.4581 20.6184 20.26 20.5315 20.0625C20.5286 20.0523 20.5246 20.0425 20.5196 20.0331C20.4846 20.0462 20.4528 20.0612 20.4153 20.0756L20.4278 20.1075C20.5059 20.2994 20.5809 20.4919 20.6603 20.6837C20.6815 20.735 20.6903 20.7887 20.7015 20.8425C20.7628 21.1294 20.8203 21.4175 20.8821 21.705L21.0934 22.7319C21.0944 22.7343 21.0948 22.737 21.0945 22.7396C21.0941 22.7423 21.0931 22.7448 21.0915 22.7469L21.0828 22.725C20.9115 22.2006 20.7359 21.6769 20.564 21.1525C20.5296 21.05 20.499 20.9487 20.4615 20.8462C20.444 20.795 20.4384 20.7425 20.4303 20.6894C20.4084 20.5406 20.3896 20.3906 20.3653 20.2419C20.3621 20.2062 20.3565 20.1712 20.3515 20.1369C20.35 20.1226 20.3477 20.1084 20.3446 20.0944C20.3071 20.0981 20.2728 20.1031 20.2353 20.1075C20.2353 20.1225 20.2365 20.1381 20.2378 20.1537C20.2596 20.3369 20.2784 20.5206 20.3046 20.7031C20.3184 20.8031 20.3115 20.9012 20.3059 21.0012C20.3021 21.0856 20.2965 21.17 20.2928 21.255C20.2815 21.4262 20.2728 21.5969 20.2609 21.7675L20.2421 22.12C20.2315 22.32 20.219 22.5194 20.2084 22.7181C20.2034 22.7744 20.2021 22.8319 20.1965 22.8869L20.1815 22.6975L20.1621 22.2875L20.1396 21.9219C20.1334 21.7969 20.1253 21.6725 20.1184 21.5475C20.1128 21.4656 20.1096 21.3837 20.1046 21.3031C20.0978 21.1737 20.0896 21.0444 20.0834 20.9162C20.0772 20.8479 20.0789 20.7792 20.0884 20.7112C20.1015 20.6187 20.1115 20.5244 20.1228 20.4306C20.1353 20.3381 20.1459 20.245 20.1571 20.1537C20.1584 20.1394 20.1584 20.1244 20.1603 20.1075L20.0509 20.0931C20.0478 20.1181 20.0421 20.1425 20.0378 20.1675C20.0118 20.3584 19.9851 20.5493 19.9578 20.74C19.9503 20.8144 19.9209 20.8831 19.8959 20.9525C19.7034 21.5387 19.5103 22.1256 19.3153 22.7112C19.3109 22.7219 19.309 22.7319 19.3009 22.7419C19.3009 22.7344 19.3009 22.7287 19.304 22.7219C19.3846 22.3269 19.4659 21.9312 19.5496 21.5362C19.6034 21.2737 19.659 21.0119 19.7121 20.75L19.7271 20.7069C19.8078 20.5087 19.8853 20.3087 19.9678 20.1106C19.9706 20.0989 19.9748 20.0876 19.9803 20.0769C19.9458 20.0621 19.9112 20.0477 19.8765 20.0337C19.8721 20.045 19.8653 20.0544 19.8615 20.0656C19.7753 20.2644 19.6909 20.4637 19.6046 20.6625C19.5992 20.6774 19.5926 20.6919 19.5846 20.7056C19.2158 21.2643 18.8481 21.8237 18.4815 22.3837C18.4765 22.3922 18.4699 22.3996 18.4621 22.4056C18.4653 22.3956 18.4709 22.3875 18.4746 22.3787L19.3784 20.5869C19.3862 20.5706 19.3958 20.5553 19.4071 20.5412L19.7934 20.0231C19.8015 20.0144 19.8065 20.0062 19.814 19.9969C19.7821 19.9737 19.7565 19.9525 19.7246 19.9281C19.7178 19.9362 19.7115 19.9431 19.7059 19.9512C19.5709 20.1206 19.4378 20.2912 19.3059 20.46C19.2909 20.4756 19.2771 20.4919 19.2603 20.5062C18.7678 20.9469 18.2753 21.385 17.7809 21.8262C17.7709 21.8344 17.7609 21.8431 17.7484 21.8487C17.754 21.8431 17.7571 21.8362 17.7609 21.8319C18.1665 21.3787 18.569 20.9262 18.9728 20.4731C18.9959 20.4481 19.019 20.4231 19.0409 20.3962C19.0871 20.3425 19.139 20.295 19.1953 20.2525L19.644 19.8994C19.654 19.8919 19.6615 19.8837 19.6728 19.8762C19.6506 19.8463 19.6277 19.8169 19.604 19.7881C19.594 19.7944 19.5859 19.8006 19.5765 19.8075C19.4046 19.9362 19.2321 20.0637 19.0603 20.1931C19.041 20.2076 19.0205 20.2204 18.999 20.2312C18.4121 20.5275 17.8221 20.8237 17.234 21.12C17.2228 21.125 17.2121 21.1312 17.199 21.1312L17.2228 21.1144L18.3203 20.3956C18.5115 20.27 18.7034 20.1444 18.8934 20.0181C18.9096 20.0087 18.9265 20.0006 18.9409 19.9931C19.1403 19.9087 19.339 19.8237 19.5365 19.7387C19.5459 19.735 19.5553 19.7312 19.5665 19.7256L19.5246 19.6225C19.5128 19.6256 19.5053 19.6287 19.4959 19.6319C19.2934 19.7125 19.0928 19.7944 18.889 19.8744C18.8471 19.89 18.8015 19.8975 18.7571 19.9069L17.3915 20.1906C17.2196 20.2275 17.0446 20.2637 16.8721 20.2994C16.8652 20.301 16.8579 20.3001 16.8515 20.2969C16.899 20.2819 16.9465 20.265 16.9934 20.2494C17.5834 20.055 18.1728 19.8612 18.7609 19.6656C18.8071 19.65 18.8565 19.6456 18.9034 19.6381C19.0934 19.6119 19.2828 19.5844 19.4709 19.5575C19.4824 19.5555 19.4939 19.553 19.5053 19.55C19.5015 19.5137 19.4959 19.4775 19.4928 19.44L19.4015 19.45L19.024 19.4956C18.9534 19.505 18.8834 19.5125 18.814 19.5212C18.7971 19.5231 18.7809 19.5237 18.7646 19.5231L18.3671 19.5L18.1321 19.4869L17.7271 19.4631L17.1365 19.4306C16.994 19.4231 16.8553 19.4137 16.7134 19.4037C16.7359 19.4019 16.7609 19.3981 16.7853 19.3981L17.2696 19.3706L17.9096 19.3344L18.4396 19.3044L18.7721 19.2844C18.7853 19.2837 18.8009 19.2856 18.814 19.2869L19.1953 19.3325L19.4653 19.365H19.4928C19.4959 19.3294 19.5015 19.2956 19.5053 19.2569C19.4821 19.2519 19.4559 19.2481 19.4328 19.2437C19.2659 19.2206 19.1003 19.1962 18.9334 19.1719C18.8987 19.1679 18.8641 19.1633 18.8296 19.1581C18.8105 19.1555 18.7917 19.1511 18.7734 19.145C18.2765 18.9819 17.7828 18.8175 17.2865 18.6544C17.1484 18.6091 17.0105 18.5633 16.8728 18.5169C16.8609 18.5137 16.8496 18.5084 16.8396 18.5012L16.9265 18.5187L17.9871 18.7394C18.2709 18.7987 18.559 18.8575 18.8428 18.9175C18.8598 18.9213 18.8766 18.9265 18.8928 18.9331C19.0928 19.0119 19.2909 19.0931 19.4928 19.1731L19.5228 19.185C19.5365 19.1506 19.5515 19.1175 19.5665 19.0819C19.5563 19.0758 19.5457 19.0706 19.5346 19.0662C19.3359 18.9825 19.1378 18.8969 18.9396 18.8112C18.9241 18.8047 18.909 18.7969 18.8946 18.7881C18.334 18.4212 17.7759 18.0525 17.2146 17.685C17.2072 17.6809 17.2013 17.6745 17.1978 17.6669L17.2203 17.6794C17.779 17.9606 18.3384 18.2419 18.8984 18.5225C18.9909 18.5687 19.0809 18.6244 19.1634 18.6875C19.2996 18.7931 19.4384 18.8944 19.5771 18.9981C19.5865 19.005 19.5946 19.0112 19.6046 19.0175L19.6734 18.9306L19.649 18.9094L19.1409 18.51C19.1234 18.4962 19.1096 18.4819 19.0946 18.4669C18.6521 17.9712 18.209 17.475 17.7678 16.9794C17.7614 16.9743 17.7564 16.9676 17.7534 16.96C17.7665 16.9612 17.7715 16.97 17.7771 16.9756C18.0453 17.2131 18.3109 17.4506 18.5771 17.6881L19.2659 18.3019C19.2784 18.3131 19.2903 18.3269 19.3015 18.3394L19.6959 18.8406C19.7059 18.8519 19.7134 18.8637 19.7246 18.8787L19.8153 18.8094C19.8096 18.8006 19.8021 18.7937 19.7978 18.7856C19.669 18.6137 19.5409 18.4412 19.4109 18.27C19.3975 18.2498 19.3852 18.229 19.374 18.2075C19.074 17.6169 18.7765 17.0237 18.4784 16.4325C18.4728 16.4212 18.4671 16.4125 18.4659 16.4006C18.4715 16.4069 18.4771 16.4125 18.4809 16.4181L19.1196 17.3944L19.5715 18.0819C19.5871 18.1081 19.6046 18.1356 19.6146 18.1644C19.699 18.3569 19.7803 18.55 19.8621 18.7425C19.8678 18.7512 19.8715 18.7606 19.8771 18.7719L19.9809 18.7287L19.9696 18.7025C19.8915 18.5075 19.8153 18.3125 19.7359 18.1187C19.714 18.0694 19.7059 18.0181 19.6953 17.9669C19.6271 17.6412 19.5615 17.315 19.4934 16.9887C19.4265 16.675 19.3628 16.3637 19.2971 16.0487C19.2959 16.0469 19.2971 16.0444 19.2996 16.0381L19.3546 16.205C19.5509 16.7944 19.7453 17.385 19.9378 17.9756C19.954 18.0219 19.9596 18.0725 19.9665 18.1206C19.9896 18.2844 20.0128 18.4494 20.039 18.6144C20.0434 18.6456 20.0453 18.6769 20.0515 18.7112L20.1603 18.6975V18.6562C20.1446 18.5256 20.1278 18.3944 20.1128 18.2644C20.1034 18.1881 20.0965 18.1137 20.0859 18.0394C20.0796 17.9894 20.0796 17.9388 20.0859 17.8887C20.0903 17.8037 20.0965 17.7194 20.1003 17.635L20.1309 17.1256C20.1365 17.0344 20.1384 16.9419 20.144 16.8506C20.1521 16.7319 20.1584 16.6112 20.1653 16.4919C20.1709 16.4044 20.1753 16.3162 20.179 16.2294C20.184 16.1262 20.1921 16.0237 20.2009 15.9212C20.2034 15.9494 20.2046 15.9781 20.2059 16.0081C20.2146 16.1337 20.2209 16.2594 20.2284 16.3856L20.2609 16.9581L20.2803 17.2794C20.2903 17.465 20.299 17.6512 20.3096 17.8369C20.3128 17.865 20.314 17.8912 20.3159 17.9187C20.324 17.9912 20.3096 18.0631 20.3034 18.135L20.2634 18.4625C20.2571 18.5244 20.2478 18.5862 20.2403 18.6487C20.239 18.6637 20.239 18.68 20.2346 18.6981C20.2734 18.7037 20.3084 18.7075 20.3471 18.7125C20.3528 18.6856 20.3553 18.6606 20.3596 18.6344C20.3896 18.4312 20.4184 18.2281 20.4471 18.0237C20.4496 18.0087 20.4559 17.9931 20.4596 17.9775C20.6634 17.3662 20.8634 16.7544 21.0659 16.1419C21.0759 16.1137 21.0834 16.0869 21.099 16.06C21.0973 16.0743 21.095 16.0884 21.0921 16.1025C21.0009 16.545 20.9059 16.9862 20.8153 17.4275C20.7746 17.6344 20.7315 17.8419 20.6884 18.0487C20.6853 18.0659 20.6799 18.0825 20.6721 18.0981L20.4309 18.7012C20.4265 18.71 20.4234 18.7194 20.419 18.7306C20.4565 18.745 20.4871 18.7594 20.5234 18.7737L20.5378 18.7437L20.7896 18.1519C20.7996 18.1319 20.8071 18.1125 20.8203 18.0962L21.9109 16.4325C21.9178 16.4237 21.9234 16.415 21.934 16.4087C21.9296 16.4175 21.9265 16.4262 21.9209 16.435L21.024 18.2162C21.0146 18.2331 21.0053 18.25 20.994 18.265C20.864 18.4381 20.7334 18.6112 20.6053 18.7831C20.5991 18.793 20.5922 18.8024 20.5846 18.8112L20.6734 18.8806C20.6804 18.8732 20.6869 18.8652 20.6928 18.8569C20.8253 18.6881 20.9571 18.5187 21.0915 18.35C21.1063 18.331 21.1228 18.3134 21.1409 18.2975C21.6346 17.8562 22.129 17.4156 22.6234 16.9756C22.6315 16.9687 22.6371 16.9619 22.6503 16.9581L22.634 16.9781C22.4321 17.2062 22.2303 17.4331 22.0253 17.66C21.7815 17.9319 21.5409 18.2031 21.299 18.475C21.2865 18.4887 21.2715 18.5006 21.2584 18.5119L20.7503 18.9112L20.7253 18.9312C20.749 18.9612 20.7703 18.99 20.7953 19.02L20.8221 19L21.3428 18.61C21.356 18.6005 21.3698 18.5918 21.384 18.5837C21.984 18.2825 22.5803 17.9825 23.1765 17.6812C23.1865 17.6769 23.1946 17.6731 23.2053 17.6731C23.1778 17.6912 23.1521 17.7087 23.1246 17.7256C22.5853 18.08 22.0459 18.4344 21.5046 18.7887C21.4896 18.7975 21.4759 18.8062 21.4596 18.8131C21.2603 18.8994 21.059 18.9844 20.8615 19.07L20.8296 19.0825C20.8465 19.1175 20.8584 19.1506 20.8734 19.1856L20.9021 19.1762C21.1028 19.0969 21.3021 19.0137 21.5046 18.9369C21.5546 18.9169 21.6096 18.9081 21.664 18.8969L22.5846 18.7056C22.8709 18.6469 23.1546 18.5869 23.4415 18.5275C23.4678 18.5219 23.4921 18.5162 23.5196 18.5112C23.5265 18.5112 23.5328 18.51 23.5428 18.5137L23.4553 18.5425C22.8446 18.7444 22.2359 18.9456 21.6253 19.145C21.579 19.1612 21.5278 19.1656 21.4796 19.1731C21.3428 19.1937 21.2078 19.2119 21.0746 19.2312C21.0259 19.2381 20.9778 19.2456 20.929 19.2519L20.8934 19.2581C20.8971 19.295 20.9028 19.3294 20.9053 19.3694L20.9996 19.3594L21.3371 19.3194C21.4215 19.3087 21.5096 19.2969 21.5978 19.2887C21.6371 19.2856 21.6771 19.2894 21.7178 19.2912C21.8034 19.295 21.889 19.3025 21.9784 19.3062L22.4834 19.3362C22.5584 19.3406 22.6334 19.3437 22.7109 19.3487L23.2259 19.3781C23.3478 19.3856 23.4734 19.3912 23.5946 19.3987C23.6247 19.4005 23.6547 19.4032 23.6846 19.4069L23.5934 19.4144L23.2153 19.435L22.7471 19.4625L22.394 19.4812C22.2315 19.4912 22.0659 19.5006 21.9021 19.5112C21.8121 19.515 21.7196 19.5237 21.629 19.5244C21.5771 19.5256 21.5228 19.5156 21.4721 19.51C21.3611 19.497 21.25 19.4836 21.139 19.47L20.9259 19.4444H20.9053C20.9028 19.4806 20.8971 19.5162 20.8934 19.5544C21.1137 19.587 21.3341 19.6189 21.5546 19.65C21.6196 19.6581 21.6765 19.6837 21.7378 19.7031L23.5153 20.29C23.5268 20.2924 23.5377 20.2973 23.5471 20.3044C23.5321 20.3019 23.5178 20.2994 23.5028 20.2981L21.959 19.9762L21.5515 19.8912C21.5384 19.8875 21.5209 19.8825 21.5065 19.8756C21.3059 19.7962 21.1046 19.715 20.9028 19.6344L20.8759 19.625C20.8613 19.6592 20.8461 19.6932 20.8303 19.7269L20.8634 19.7425C21.0628 19.8275 21.2609 19.9119 21.459 19.9975C21.4746 20.0044 21.4903 20.0125 21.5065 20.0237L23.1703 21.1137C23.1784 21.12 23.189 21.1275 23.1959 21.1394C23.1878 21.1344 23.1784 21.1312 23.1715 21.1262L22.3046 20.6912C22.0021 20.5375 21.6971 20.385 21.3915 20.2312C21.372 20.2216 21.3538 20.2096 21.3371 20.1956C21.1653 20.0675 20.9915 19.9387 20.8196 19.8094C20.812 19.8029 20.8038 19.797 20.7953 19.7919C20.7715 19.8206 20.7503 19.8487 20.7253 19.8787L20.749 19.8975C20.9165 20.0312 21.0871 20.165 21.2553 20.2981C21.2744 20.3118 21.2918 20.3278 21.3071 20.3456L22.6315 21.8275C22.6369 21.8349 22.6411 21.8432 22.644 21.8519C22.6371 21.8444 22.6278 21.8394 22.6209 21.8337C22.124 21.3894 21.6265 20.9475 21.1284 20.5037C21.1171 20.4937 21.107 20.4824 21.0984 20.47L20.6934 19.9537C20.6878 19.9456 20.6809 19.9381 20.674 19.93C20.6453 19.9537 20.6171 19.975 20.5884 20C20.5909 20.0075 20.5965 20.0156 20.6015 20.0231L20.9946 20.5469C21.0058 20.5621 21.0159 20.5782 21.0246 20.595C21.3228 21.1862 21.6203 21.7787 21.9178 22.3706C21.9226 22.3787 21.9258 22.3876 21.9271 22.3969H21.9253V22.3919Z" fill="#010088"/>
<path fill-rule="evenodd" clip-rule="evenodd" d="M21.9189 22.3919C21.9252 22.3981 21.9289 22.405 21.9339 22.4106C21.9308 22.4119 21.9308 22.4138 21.9271 22.4144C21.9258 22.4056 21.9214 22.4 21.9202 22.3919H21.9189" fill="#010088"/>
</svg>
