<svg width="24" height="16" viewBox="0 0 24 16" fill="none" xmlns="http://www.w3.org/2000/svg">
<path d="M7.29103 13.225C7.02179 13.2254 6.76182 13.1267 6.56063 12.9478L0.994629 7.99998L6.86973 2.77718C7.08872 2.58984 7.37248 2.49592 7.65999 2.51562C7.9475 2.53532 8.2158 2.66706 8.40719 2.88252C8.59857 3.09798 8.69777 3.37994 8.68343 3.66777C8.6691 3.95559 8.54238 4.2263 8.33053 4.42168L4.30563 7.99998L8.02143 11.3022C8.18837 11.4503 8.3063 11.6457 8.35957 11.8624C8.41284 12.0792 8.39892 12.307 8.31967 12.5156C8.24042 12.7242 8.09958 12.9038 7.91585 13.0305C7.73213 13.1572 7.51421 13.225 7.29103 13.225V13.225ZM17.1305 13.2228L23.0056 7.99998L17.4396 3.05218C17.2216 2.85846 16.9355 2.75931 16.6443 2.77654C16.3531 2.79376 16.0807 2.92595 15.887 3.14402C15.6933 3.3621 15.5941 3.64819 15.6113 3.93937C15.6286 4.23055 15.7608 4.50296 15.9788 4.69668L19.6946 7.99998L15.6697 11.5772C15.4515 11.7709 15.3192 12.0434 15.3019 12.3346C15.2845 12.6259 15.3836 12.9122 15.5773 13.1304C15.771 13.3486 16.0435 13.4809 16.3348 13.4983C16.6261 13.5156 16.9123 13.4165 17.1305 13.2228V13.2228ZM11.9847 14.7815L14.1847 1.58148C14.2129 1.43721 14.2118 1.28878 14.1816 1.14493C14.1514 1.00109 14.0927 0.864757 14.0089 0.743988C13.9251 0.623218 13.818 0.520462 13.6939 0.441788C13.5697 0.363114 13.4311 0.310119 13.2861 0.285932C13.1411 0.261745 12.9928 0.266857 12.8498 0.300966C12.7068 0.335075 12.5721 0.39749 12.4537 0.484524C12.3353 0.571557 12.2355 0.681444 12.1602 0.807693C12.0849 0.933943 12.0358 1.07399 12.0155 1.21958L9.81553 14.4196C9.7874 14.5638 9.78846 14.7123 9.81866 14.8561C9.84886 15 9.90758 15.1363 9.99135 15.2571C10.0751 15.3778 10.1822 15.4806 10.3064 15.5593C10.4305 15.6379 10.5692 15.6909 10.7142 15.7151C10.8592 15.7393 11.0075 15.7342 11.1505 15.7001C11.2934 15.666 11.4281 15.6036 11.5466 15.5165C11.665 15.4295 11.7648 15.3196 11.8401 15.1934C11.9153 15.0671 11.9645 14.9271 11.9847 14.7815V14.7815Z" fill="#E3E6EA"/>
</svg>
