<svg width="18" height="16" viewBox="0 0 18 16" fill="none" xmlns="http://www.w3.org/2000/svg">
<path d="M17.9377 2.46349C17.2803 2.74708 16.5648 2.95118 15.8279 3.03067C16.593 2.57614 17.166 1.85805 17.4393 1.01114C16.7213 1.43823 15.9348 1.73771 15.1146 1.8963C14.7719 1.52983 14.3573 1.23789 13.8967 1.03866C13.4361 0.839428 12.9395 0.737182 12.4377 0.73829C10.4074 0.73829 8.77461 2.38399 8.77461 4.40352C8.77461 4.68712 8.80898 4.97071 8.86484 5.24356C5.82481 5.08458 3.11348 3.63224 1.31094 1.4086C0.982496 1.96959 0.810381 2.60835 0.8125 3.25841C0.8125 4.53028 1.45918 5.65177 2.44531 6.31134C1.86417 6.28845 1.29663 6.12872 0.788867 5.84513V5.89024C0.788867 7.6713 2.04785 9.14728 3.72578 9.48673C3.41073 9.56856 3.08664 9.61043 2.76113 9.61134C2.52266 9.61134 2.29707 9.58771 2.06934 9.55548C2.5334 11.0078 3.88477 12.0627 5.49395 12.0971C4.23496 13.0832 2.65801 13.6633 0.945703 13.6633C0.638477 13.6633 0.354883 13.6525 0.0605469 13.6182C1.68477 14.6602 3.61191 15.2617 5.6873 15.2617C12.4248 15.2617 16.1115 9.68009 16.1115 4.83536C16.1115 4.67638 16.1115 4.51739 16.1008 4.35841C16.8141 3.83634 17.4393 3.18966 17.9377 2.46349Z" fill="#E3E6EA"/>
</svg>
